<svg id="svg" version="1.1" viewBox="0 0 300 298.16220225724777" width="300" height="298.16220225724777" xmlns="http://www.w3.org/2000/svg"><g xmlns="http://www.w3.org/2000/svg" id="svg" fill="currentColor" fill-rule="evenodd" stroke="none" stroke-width="1" stroke-linecap="butt" stroke-linejoin="miter" stroke-miterlimit="10" stroke-dasharray="" stroke-dashoffset="0" font-family="none" font-weight="none" font-size="none" text-anchor="none" style="mix-blend-mode: normal"><path d="M140.45706,0.12857c-15.483,1.14862 -31.0462,4.5781 -44.78577,9.87043c-28.33915,10.91602 -52.00125,29.60134 -70.15676,55.40088c-1.50106,2.13391 -2.72988,4.12497 -2.72988,4.42413c0,0.29974 1.90969,1.03329 4.2444,1.63044c8.97882,2.29608 26.89605,8.20311 39.05729,12.87664c19.70047,7.57143 30.36358,12.36731 46.6738,20.99311c35.19459,18.6139 65.36439,40.60225 92.8851,67.69676c21.77993,21.44272 39.79845,42.86086 54.82598,65.17003c2.09293,3.1069 3.9593,5.65881 4.14781,5.67052c0.18851,0.01171 2.1907,-2.28378 4.44989,-5.10089c27.65887,-34.49499 37.5375,-81.23612 26.50849,-125.42943c-3.91363,-15.68263 -11.45052,-33.06419 -19.79999,-45.66392c-24.31721,-36.69447 -63.46466,-61.11296 -106.46309,-66.40705c-7.46839,-0.91972 -23.32841,-1.54145 -28.85726,-1.13165M17.84299,77.94223c-0.5023,0.76575 -0.91269,1.60351 -0.91269,1.8611c0,0.25701 3.62267,1.93369 8.04973,3.72571l8.04973,3.25736l7.31794,-0.35536c6.73601,-0.32667 7.1786,-0.41683 5.56163,-1.13516c-4.0313,-1.78967 -14.7635,-5.42698 -20.74079,-7.02815l-6.41344,-1.71825l-0.91211,1.39275M10.48583,93.55812c-3.49388,8.09891 -6.77817,19.71803 -8.85587,31.33248c-1.74869,9.77032 -2.18836,31.98289 -0.83776,42.3006c3.51144,26.82755 13.70913,51.20682 30.05271,71.84633c2.09644,2.64734 4.03892,4.67353 4.31583,4.50258c1.01163,-0.62524 7.75584,-9.86458 11.42535,-15.65219c9.63157,-15.19086 16.19664,-31.2792 19.87025,-48.6953c1.8166,-8.61116 2.52147,-23.35417 1.463,-30.59424c-3.15198,-21.55396 -18.44822,-39.33244 -46.01284,-53.47948c-10.43889,-5.35731 -9.8195,-5.27243 -11.42066,-1.56077M47.6949,93.965c0.3056,0.29623 3.45407,2.17723 6.99595,4.18001c3.54188,2.00219 7.94025,4.65772 9.77384,5.9006l3.33405,2.26036l9.2528,-0.03044c8.86231,-0.02986 9.19426,-0.07318 7.86473,-1.02451c-2.70529,-1.93662 -11.56936,-6.7003 -17.203,-9.2446l-5.71209,-2.58001h-7.43093c-4.53771,0 -7.2149,0.20959 -6.87535,0.5386M84.54803,118.09838c1.60995,1.32952 6.41051,5.93807 10.66838,10.24101l7.74121,7.82375h11.19117h11.19117l-1.5514,-1.84353c-2.53552,-3.01323 -10.07768,-9.65031 -16.24933,-14.29925l-5.77122,-4.34744l-10.07358,0.00351l-10.07358,0.0041l2.92717,2.41785M113.12135,152.11625c0.16802,0.40278 1.487,3.5249 2.93069,6.93857c3.30771,7.81907 6.85778,18.71343 8.99404,27.6015l1.65327,6.87827l16.83125,0.00059c10.98159,0.00059 16.83125,-0.20549 16.83125,-0.59305c0,-1.10179 -6.47667,-15.23828 -9.73461,-21.24777c-1.77914,-3.28195 -5.24901,-9.19426 -7.71076,-13.13833l-4.47624,-7.17158h-12.81224c-10.02206,0 -12.74492,0.15924 -12.50665,0.73179M131.36584,225.87285c1.39743,19.61909 1.54028,47.35232 0.32901,63.96696c-0.25818,3.54188 -0.28686,6.63942 -0.0644,6.88296c0.22247,0.24354 4.02721,0.7476 8.45544,1.11935c11.64079,0.97826 29.62418,-0.34833 42.36851,-3.12622l3.06592,-0.66798l-0.27691,-2.10405c-3.27961,-24.92372 -8.38109,-49.73621 -13.67342,-66.50189l-1.66322,-5.26891l-19.48444,-0.15455l-19.48444,-0.15397l0.42795,6.00832"/></g></svg>